<svg xmlns="http://www.w3.org/2000/svg" width="48" height="48" viewBox="0 0 48 48"><g fill="#fff" transform="translate(8 -1013.362)"><circle cx="16" cy="1037.362" r="24" fill="#239fdb" fill-rule="evenodd"/><path fill-rule="evenodd" d="m 3.4570312,5 a 0.50064427,0.50064427 0 0 0 0.050781,1 L 6.0917969,6 9.015625,21.59375 A 0.50005,0.50005 0 0 0 9.5078125,22 l 1.0859375,0 3.914062,0 10.078126,0 a 0.50004997,0.50004997 0 0 0 0.01367,0.002 A 0.50004997,0.50004997 0 0 0 24.650391,22 L 24.8125,22 C 25.50884,22 26,22.4709 26,23 c 0,0.5291 -0.49116,1 -1.1875,1 L 9.40625,24 a 0.50005,0.50005 0 1 0 0,1 l 3.09375,0 10,0 2.3125,0 C 25.98591,25 27,24.1329 27,23 27,21.987566 26.189407,21.191923 25.179688,21.033203 L 26.994141,9.5800781 A 0.50004997,0.50004997 0 0 0 26.5,9.0019531 l -18.828125,0 -0.6738281,-3.59375 A 0.50005,0.50005 0 0 0 6.5078125,5 l -3,0 A 0.50005,0.50005 0 0 0 3.4570312,5 Z M 22.5,25 c -0.822504,0 -1.499993,0.6775 -1.5,1.5 7e-6,0.8225 0.677496,1.5 1.5,1.5 0.822505,0 1.499993,-0.6775 1.5,-1.5 -7e-6,-0.8225 -0.677495,-1.5 -1.5,-1.5 z m -10,0 c -0.822505,0 -1.499993,0.6775 -1.5,1.5 7e-6,0.8225 0.677495,1.5 1.5,1.5 0.822504,0 1.499993,-0.6775 1.5,-1.5 -7e-6,-0.8225 -0.677496,-1.5 -1.5,-1.5 z m -4.640625,-14.998047 3.181641,0 L 11.207031,12 l -2.972656,0 -0.375,-1.998047 z m 4.183594,0 2.957031,0 L 15,12 12.208984,12 12.042969,10.001953 Z m 3.957031,0 2,0 L 18,12 l -2,0 0,-1.998047 z m 3,0 2.957031,0 L 21.791016,12 19,12 19,10.001953 Z m 3.958984,0 2.955078,0 L 25.597656,12 22.792969,12 22.958984,10.001953 Z M 8.421875,13 l 2.869141,0 0.166015,2 -2.660156,0 -0.375,-2 z M 12.292969,13 15,13 l 0,2 -2.541016,0 -0.166015,-2 z M 16,13 l 2,0 0,2 -2,0 0,-2 z m 3,0 2.707031,0 -0.166015,2 L 19,15 19,13 Z m 3.708984,0 2.730469,0 -0.316406,2 -2.580078,0 0.166015,-2 z m -13.724609,3 2.556641,0 0.166015,2 -2.347656,0 -0.375,-2 z M 12.542969,16 15,16 l 0,2 -2.291016,0 -0.166015,-2 z M 16,16 l 2,0 0,2 -2,0 0,-2 z m 3,0 2.457031,0 -0.166015,2 L 19,18 19,16 Z m 3.458984,0 2.50586,0 -0.316406,2 -2.355469,0 0.166015,-2 z m -12.912109,3 2.242187,0 0.167969,2 -1.414062,0 -0.621094,0 -0.375,-2 z M 12.792969,19 15,19 l 0,2 -0.457031,0 -0.03516,0 -1.548828,0 -0.166015,-2 z M 16,19 l 2,0 0,2 -2,0 0,-2 z m 3,0 2.207031,0 -0.166015,2 L 19,21 19,19 Z m 3.210938,0 2.279296,0 -0.318359,2 -2.128906,0 0.167969,-2 z M 12.5,26 c 0.282067,0 0.499998,0.218 0.5,0.5 -2e-6,0.2821 -0.217933,0.5 -0.5,0.5 -0.282068,0 -0.499998,-0.2179 -0.5,-0.5 2e-6,-0.282 0.217932,-0.5 0.5,-0.5 z m 10,0 c 0.282068,0 0.499998,0.218 0.5,0.5 -2e-6,0.2821 -0.217932,0.5 -0.5,0.5 -0.282067,0 -0.499998,-0.2179 -0.5,-0.5 2e-6,-0.282 0.217933,-0.5 0.5,-0.5 z" color="#000" font-family="sans-serif" font-weight="400" overflow="visible" transform="translate(0 1022.363)" white-space="normal" style="line-height:normal;text-indent:0;text-align:start;text-decoration-line:none;text-decoration-style:solid;text-decoration-color:#000;text-transform:none;block-progression:tb;isolation:auto;mix-blend-mode:normal"/></g></svg>