<svg xmlns="http://www.w3.org/2000/svg" width="32" height="32" viewBox="0 0 32 32"><path style="line-height:normal;text-indent:0;text-align:start;text-decoration-line:none;text-decoration-style:solid;text-decoration-color:#000;text-transform:none;block-progression:tb;isolation:auto;mix-blend-mode:normal" fill-rule="evenodd" d="M 3.4570312 5 A 0.50005 0.50005 0 0 0 3.5078125 6 L 6.0917969 6 L 9.015625 21.59375 A 0.50005 0.50005 0 0 0 9.5078125 22 L 10.59375 22 L 14.507812 22 L 24.585938 22 A 0.50004997 0.50004997 0 0 0 24.599609 22.001953 A 0.50004997 0.50004997 0 0 0 24.650391 22 L 24.8125 22 C 25.50884 22 26 22.4709 26 23 C 26 23.5291 25.50884 24 24.8125 24 L 9.40625 24 A 0.50005 0.50005 0 1 0 9.40625 25 L 12.5 25 L 22.5 25 L 24.8125 25 C 25.98591 25 27 24.1329 27 23 C 27 21.987566 26.189407 21.191923 25.179688 21.033203 L 26.994141 9.5800781 A 0.50004997 0.50004997 0 0 0 26.5 9.0019531 L 7.671875 9.0019531 L 6.9980469 5.4082031 A 0.50005 0.50005 0 0 0 6.5078125 5 L 3.5078125 5 A 0.50005 0.50005 0 0 0 3.4570312 5 z M 22.5 25 C 21.677496 25 21.000007 25.6775 21 26.5 C 21.000007 27.3225 21.677496 28 22.5 28 C 23.322505 28 23.999993 27.3225 24 26.5 C 23.999993 25.6775 23.322505 25 22.5 25 z M 12.5 25 C 11.677495 25 11.000007 25.6775 11 26.5 C 11.000007 27.3225 11.677495 28 12.5 28 C 13.322504 28 13.999993 27.3225 14 26.5 C 13.999993 25.6775 13.322504 25 12.5 25 z M 7.859375 10.001953 L 11.041016 10.001953 L 11.207031 12 L 8.234375 12 L 7.859375 10.001953 z M 12.042969 10.001953 L 15 10.001953 L 15 12 L 12.208984 12 L 12.042969 10.001953 z M 16 10.001953 L 18 10.001953 L 18 12 L 16 12 L 16 10.001953 z M 19 10.001953 L 21.957031 10.001953 L 21.791016 12 L 19 12 L 19 10.001953 z M 22.958984 10.001953 L 25.914062 10.001953 L 25.597656 12 L 22.792969 12 L 22.958984 10.001953 z M 8.421875 13 L 11.291016 13 L 11.457031 15 L 8.796875 15 L 8.421875 13 z M 12.292969 13 L 15 13 L 15 15 L 12.458984 15 L 12.292969 13 z M 16 13 L 18 13 L 18 15 L 16 15 L 16 13 z M 19 13 L 21.707031 13 L 21.541016 15 L 19 15 L 19 13 z M 22.708984 13 L 25.439453 13 L 25.123047 15 L 22.542969 15 L 22.708984 13 z M 8.984375 16 L 11.541016 16 L 11.707031 18 L 9.359375 18 L 8.984375 16 z M 12.542969 16 L 15 16 L 15 18 L 12.708984 18 L 12.542969 16 z M 16 16 L 18 16 L 18 18 L 16 18 L 16 16 z M 19 16 L 21.457031 16 L 21.291016 18 L 19 18 L 19 16 z M 22.458984 16 L 24.964844 16 L 24.648438 18 L 22.292969 18 L 22.458984 16 z M 9.546875 19 L 11.789062 19 L 11.957031 21 L 10.542969 21 L 9.921875 21 L 9.546875 19 z M 12.792969 19 L 15 19 L 15 21 L 14.542969 21 L 14.507812 21 L 12.958984 21 L 12.792969 19 z M 16 19 L 18 19 L 18 21 L 16 21 L 16 19 z M 19 19 L 21.207031 19 L 21.041016 21 L 19 21 L 19 19 z M 22.210938 19 L 24.490234 19 L 24.171875 21 L 22.042969 21 L 22.210938 19 z M 12.5 26 C 12.782067 26 12.999998 26.218 13 26.5 C 12.999998 26.7821 12.782067 27 12.5 27 C 12.217932 27 12.000002 26.7821 12 26.5 C 12.000002 26.218 12.217932 26 12.5 26 z M 22.5 26 C 22.782068 26 22.999998 26.218 23 26.5 C 22.999998 26.7821 22.782068 27 22.5 27 C 22.217933 27 22.000002 26.7821 22 26.5 C 22.000002 26.218 22.217933 26 22.5 26 z " color="#000" font-family="sans-serif" font-weight="400" overflow="visible" white-space="normal"/></svg>